<?xml version="1.0" standalone="no"?>
<!DOCTYPE svg PUBLIC "-//W3C//DTD SVG 20010904//EN"
 "http://www.w3.org/TR/2001/REC-SVG-20010904/DTD/svg10.dtd">
<svg version="1.0" xmlns="http://www.w3.org/2000/svg"
 width="512.000000pt" height="512.000000pt" viewBox="0 0 512.000000 512.000000"
 preserveAspectRatio="xMidYMid meet">
<metadata>
Created by potrace 1.11, written by Peter Selinger 2001-2013
</metadata>
<g transform="translate(0.000000,512.000000) scale(0.100000,-0.100000)"
fill="#000000" stroke="none">
<path d="M1560 4343 c-146 -21 -369 -81 -441 -118 -16 -9 -29 -14 -29 -11 0 2
-45 -20 -100 -50 -101 -54 -221 -131 -294 -188 -48 -37 -241 -230 -274 -271
-154 -200 -251 -379 -316 -582 -63 -195 -85 -351 -81 -563 7 -311 88 -566 258
-819 56 -84 225 -258 307 -318 166 -120 355 -206 535 -244 60 -12 70 -14 155
-24 52 -7 295 -7 327 -1 11 3 43 8 70 11 48 7 204 43 209 48 2 2 -25 31 -59
65 l-63 63 -55 -8 c-89 -14 -239 -7 -345 16 -404 86 -695 364 -800 764 -28
107 -37 190 -36 329 5 532 355 1064 857 1303 198 94 350 129 565 129 145 0
207 -8 330 -45 72 -22 250 -107 250 -121 0 -4 5 -8 11 -8 34 0 212 -172 273
-264 76 -115 150 -292 170 -411 29 -166 26 -358 -10 -515 -3 -14 -9 -43 -14
-65 -11 -52 -59 -182 -98 -265 -58 -124 -160 -273 -259 -380 -18 -19 -33 -37
-33 -41 0 -6 87 -49 100 -49 40 0 248 296 325 462 36 79 110 288 118 334 3 16
13 67 23 114 14 65 18 132 18 280 0 219 -12 300 -70 482 -30 95 -126 305 -144
318 -4 3 -17 20 -28 39 -36 60 -144 184 -212 244 -97 86 -109 96 -180 141
-163 105 -335 173 -509 202 -18 3 -43 8 -55 11 -24 7 -359 12 -396 6z"/>
<path d="M2574 3547 c45 -144 52 -177 63 -297 22 -245 -21 -473 -137 -715 -58
-123 -164 -284 -258 -391 l-71 -81 58 -59 c75 -77 114 -111 183 -158 l56 -38
38 42 c21 23 54 63 73 88 20 26 39 49 44 50 4 2 7 8 7 13 0 5 15 31 34 57 79
112 158 281 195 415 20 71 23 87 36 177 8 54 9 231 1 257 -3 10 -8 38 -11 62
-17 118 -90 294 -177 427 -49 74 -143 181 -134 151z"/>
<path d="M3248 3212 c-25 -3 -26 -6 -21 -40 9 -60 16 -67 73 -68 173 -5 456
-44 532 -73 12 -5 28 -9 33 -10 65 -10 254 -80 365 -135 432 -216 645 -549
580 -907 -6 -34 -16 -73 -22 -87 -6 -15 -12 -32 -13 -38 -7 -29 -64 -114 -110
-160 -46 -47 -154 -123 -215 -151 -92 -43 -213 -85 -280 -97 -14 -3 -60 -11
-102 -20 -43 -8 -115 -18 -160 -23 -104 -10 -412 -10 -498 0 -36 4 -82 9 -102
12 -33 3 -111 17 -173 30 -11 3 -60 16 -110 30 -49 14 -97 28 -105 30 -78 19
-279 101 -400 163 -395 201 -573 456 -512 731 50 226 219 419 480 550 34 17
62 35 63 39 0 4 3 36 5 70 7 75 22 74 -154 5 -491 -192 -796 -587 -796 -1028
0 -66 11 -162 23 -202 5 -18 7 -33 4 -33 -3 0 -1 -6 4 -12 6 -7 16 -31 23 -53
43 -141 185 -330 345 -461 114 -93 366 -238 500 -287 211 -78 370 -125 540
-161 126 -26 155 -31 325 -51 98 -11 486 -12 552 -1 92 15 116 19 138 23 258
44 532 178 704 345 42 41 80 71 83 68 3 -3 3 0 0 6 -4 7 0 18 9 25 21 17 98
137 133 207 33 66 64 152 85 237 119 485 -142 960 -689 1255 -208 112 -544
218 -780 245 -33 4 -69 9 -80 12 -11 2 -67 6 -125 9 -58 3 -109 6 -115 7 -5 2
-22 1 -37 -1z"/>
<path d="M3253 2921 c1 -106 -10 -257 -23 -300 -7 -27 -7 -28 34 -30 22 -1 55
-4 71 -5 68 -8 132 -16 158 -21 15 -3 55 -10 90 -16 386 -66 760 -242 931
-437 12 -13 35 -39 52 -59 17 -19 46 -63 65 -99 19 -35 37 -64 40 -64 12 0 27
135 24 220 -12 322 -237 598 -605 742 -36 14 -74 29 -85 33 -30 12 -31 12
-173 49 -74 19 -168 40 -210 46 -43 6 -88 13 -102 16 -24 4 -98 11 -211 18
l-56 4 0 -97z"/>
<path d="M2454 2809 c-117 -82 -140 -105 -259 -251 -8 -9 -22 -32 -31 -50 -9
-18 -20 -35 -23 -38 -7 -6 -31 -70 -26 -70 2 0 32 15 67 34 34 19 100 47 145
62 78 27 82 29 101 73 48 113 99 268 90 277 -3 2 -31 -15 -64 -37z"/>
<path d="M1505 1644 c-113 -42 -323 -62 -445 -43 -25 4 -46 5 -48 4 -7 -6 183
-92 248 -113 36 -11 94 -26 130 -32 36 -7 72 -15 80 -17 8 -3 62 -7 119 -10
l104 -4 -19 28 c-39 60 -114 187 -114 195 0 11 -7 10 -55 -8z"/>
</g>
</svg>
